<mxfile host="app.diagrams.net" modified="2024-06-12T15:00:37.124Z" agent="Mozilla/5.0 (Windows NT 10.0; Win64; x64) AppleWebKit/537.36 (KHTML, like Gecko) Chrome/125.0.0.0 Safari/537.36" etag="3w8dhGEcObbQZk022wQW" version="24.5.3" type="device" pages="3">
  <diagram name="Context Diagram" id="4HvlWnRvSp18usmmrjIz">
    <mxGraphModel dx="1050" dy="618" grid="1" gridSize="10" guides="1" tooltips="1" connect="1" arrows="1" fold="1" page="1" pageScale="1" pageWidth="827" pageHeight="1169" math="0" shadow="0">
      <root>
        <mxCell id="0" />
        <mxCell id="1" parent="0" />
        <mxCell id="l31kCXYsHIEHS855cGKn-10" value="" style="edgeStyle=orthogonalEdgeStyle;rounded=0;orthogonalLoop=1;jettySize=auto;html=1;" edge="1" parent="1" source="l31kCXYsHIEHS855cGKn-11" target="l31kCXYsHIEHS855cGKn-14">
          <mxGeometry relative="1" as="geometry" />
        </mxCell>
        <mxCell id="l31kCXYsHIEHS855cGKn-11" value="&lt;div&gt;&lt;br&gt;&lt;/div&gt;&lt;div&gt;&lt;br&gt;&lt;/div&gt;&lt;div&gt;&lt;br&gt;&lt;/div&gt;User" style="shape=actor;whiteSpace=wrap;html=1;fillColor=#dae8fc;strokeColor=#6c8ebf;" vertex="1" parent="1">
          <mxGeometry x="360" y="70" width="80" height="90" as="geometry" />
        </mxCell>
        <mxCell id="l31kCXYsHIEHS855cGKn-12" value="" style="edgeStyle=orthogonalEdgeStyle;rounded=0;orthogonalLoop=1;jettySize=auto;html=1;" edge="1" parent="1" source="l31kCXYsHIEHS855cGKn-14" target="l31kCXYsHIEHS855cGKn-17">
          <mxGeometry relative="1" as="geometry" />
        </mxCell>
        <mxCell id="l31kCXYsHIEHS855cGKn-13" value="HTTP" style="edgeLabel;html=1;align=center;verticalAlign=middle;resizable=0;points=[];" vertex="1" connectable="0" parent="l31kCXYsHIEHS855cGKn-12">
          <mxGeometry x="-0.1067" y="-3" relative="1" as="geometry">
            <mxPoint as="offset" />
          </mxGeometry>
        </mxCell>
        <mxCell id="l31kCXYsHIEHS855cGKn-14" value="Web Browser" style="rounded=1;whiteSpace=wrap;html=1;fillColor=#e1d5e7;strokeColor=#9673a6;" vertex="1" parent="1">
          <mxGeometry x="340" y="180" width="120" height="60" as="geometry" />
        </mxCell>
        <mxCell id="l31kCXYsHIEHS855cGKn-15" value="" style="edgeStyle=orthogonalEdgeStyle;rounded=0;orthogonalLoop=1;jettySize=auto;html=1;" edge="1" parent="1" source="l31kCXYsHIEHS855cGKn-17" target="l31kCXYsHIEHS855cGKn-18">
          <mxGeometry relative="1" as="geometry" />
        </mxCell>
        <mxCell id="l31kCXYsHIEHS855cGKn-16" value="HTTP API calls" style="edgeLabel;html=1;align=center;verticalAlign=middle;resizable=0;points=[];" vertex="1" connectable="0" parent="l31kCXYsHIEHS855cGKn-15">
          <mxGeometry x="-0.14" y="-2" relative="1" as="geometry">
            <mxPoint as="offset" />
          </mxGeometry>
        </mxCell>
        <mxCell id="l31kCXYsHIEHS855cGKn-17" value="To-Do Application" style="rounded=1;whiteSpace=wrap;html=1;fillColor=#fff2cc;strokeColor=#d6b656;" vertex="1" parent="1">
          <mxGeometry x="340" y="300" width="120" height="60" as="geometry" />
        </mxCell>
        <mxCell id="l31kCXYsHIEHS855cGKn-18" value="Trello API" style="rounded=1;whiteSpace=wrap;html=1;fillColor=#d5e8d4;strokeColor=#82b366;" vertex="1" parent="1">
          <mxGeometry x="340" y="420" width="120" height="60" as="geometry" />
        </mxCell>
      </root>
    </mxGraphModel>
  </diagram>
  <diagram id="qKBsm5q_wG3SbkvPL-ug" name="Container Diagram">
    <mxGraphModel dx="1050" dy="618" grid="1" gridSize="10" guides="1" tooltips="1" connect="1" arrows="1" fold="1" page="1" pageScale="1" pageWidth="827" pageHeight="1169" math="0" shadow="0">
      <root>
        <mxCell id="0" />
        <mxCell id="1" parent="0" />
        <mxCell id="6XIjduRotmpyxFOgS8Oz-8" value="&amp;nbsp; &amp;nbsp; &amp;nbsp; &amp;nbsp; To-Do Application" style="rounded=1;whiteSpace=wrap;html=1;fillColor=#fff2cc;strokeColor=#d6b656;align=left;" vertex="1" parent="1">
          <mxGeometry x="200" y="275" width="290" height="235" as="geometry" />
        </mxCell>
        <mxCell id="6XIjduRotmpyxFOgS8Oz-1" value="" style="edgeStyle=orthogonalEdgeStyle;rounded=0;orthogonalLoop=1;jettySize=auto;html=1;" edge="1" parent="1" source="6XIjduRotmpyxFOgS8Oz-2" target="6XIjduRotmpyxFOgS8Oz-5">
          <mxGeometry relative="1" as="geometry" />
        </mxCell>
        <mxCell id="6XIjduRotmpyxFOgS8Oz-2" value="&lt;div&gt;&lt;br&gt;&lt;/div&gt;&lt;div&gt;&lt;br&gt;&lt;/div&gt;&lt;div&gt;&lt;br&gt;&lt;/div&gt;User" style="shape=actor;whiteSpace=wrap;html=1;fillColor=#dae8fc;strokeColor=#6c8ebf;" vertex="1" parent="1">
          <mxGeometry x="360" y="70" width="80" height="90" as="geometry" />
        </mxCell>
        <mxCell id="6XIjduRotmpyxFOgS8Oz-3" value="" style="edgeStyle=orthogonalEdgeStyle;rounded=0;orthogonalLoop=1;jettySize=auto;html=1;" edge="1" parent="1" source="6XIjduRotmpyxFOgS8Oz-5" target="BwgaGHCMQ0-QuSfGp8br-2">
          <mxGeometry relative="1" as="geometry">
            <mxPoint x="400" y="270" as="targetPoint" />
          </mxGeometry>
        </mxCell>
        <mxCell id="6XIjduRotmpyxFOgS8Oz-4" value="HTTP" style="edgeLabel;html=1;align=center;verticalAlign=middle;resizable=0;points=[];" vertex="1" connectable="0" parent="6XIjduRotmpyxFOgS8Oz-3">
          <mxGeometry x="-0.1067" y="-3" relative="1" as="geometry">
            <mxPoint x="3" y="-11" as="offset" />
          </mxGeometry>
        </mxCell>
        <mxCell id="6XIjduRotmpyxFOgS8Oz-5" value="Web Browser" style="rounded=1;whiteSpace=wrap;html=1;fillColor=#e1d5e7;strokeColor=#9673a6;" vertex="1" parent="1">
          <mxGeometry x="340" y="180" width="120" height="60" as="geometry" />
        </mxCell>
        <mxCell id="6XIjduRotmpyxFOgS8Oz-9" value="Trello API" style="rounded=1;whiteSpace=wrap;html=1;fillColor=#d5e8d4;strokeColor=#82b366;" vertex="1" parent="1">
          <mxGeometry x="340" y="540" width="120" height="60" as="geometry" />
        </mxCell>
        <mxCell id="7IJyvbo5qKKrq-MwpBh--4" style="edgeStyle=orthogonalEdgeStyle;rounded=0;orthogonalLoop=1;jettySize=auto;html=1;exitX=0.5;exitY=1;exitDx=0;exitDy=0;" edge="1" parent="1" source="BwgaGHCMQ0-QuSfGp8br-2" target="BwgaGHCMQ0-QuSfGp8br-3">
          <mxGeometry relative="1" as="geometry" />
        </mxCell>
        <mxCell id="7IJyvbo5qKKrq-MwpBh--5" value="Runs" style="edgeLabel;html=1;align=center;verticalAlign=middle;resizable=0;points=[];labelBackgroundColor=default;" vertex="1" connectable="0" parent="7IJyvbo5qKKrq-MwpBh--4">
          <mxGeometry x="-0.11" y="-1" relative="1" as="geometry">
            <mxPoint as="offset" />
          </mxGeometry>
        </mxCell>
        <mxCell id="BwgaGHCMQ0-QuSfGp8br-2" value="Flask Web Server" style="rounded=1;whiteSpace=wrap;html=1;fillColor=#ffe6cc;strokeColor=#d79b00;" vertex="1" parent="1">
          <mxGeometry x="340" y="310" width="120" height="60" as="geometry" />
        </mxCell>
        <mxCell id="7IJyvbo5qKKrq-MwpBh--2" style="edgeStyle=orthogonalEdgeStyle;rounded=0;orthogonalLoop=1;jettySize=auto;html=1;exitX=0.5;exitY=1;exitDx=0;exitDy=0;" edge="1" parent="1" source="BwgaGHCMQ0-QuSfGp8br-3" target="6XIjduRotmpyxFOgS8Oz-9">
          <mxGeometry relative="1" as="geometry" />
        </mxCell>
        <mxCell id="7IJyvbo5qKKrq-MwpBh--3" value="HTTP API calls" style="edgeLabel;html=1;align=center;verticalAlign=middle;resizable=0;points=[];" vertex="1" connectable="0" parent="7IJyvbo5qKKrq-MwpBh--2">
          <mxGeometry x="-0.3771" y="-1" relative="1" as="geometry">
            <mxPoint x="1" y="28" as="offset" />
          </mxGeometry>
        </mxCell>
        <mxCell id="BwgaGHCMQ0-QuSfGp8br-3" value="Application Code&lt;div&gt;(Python)&lt;/div&gt;" style="rounded=1;whiteSpace=wrap;html=1;fillColor=#ffe6cc;strokeColor=#d79b00;" vertex="1" parent="1">
          <mxGeometry x="340" y="410" width="120" height="60" as="geometry" />
        </mxCell>
      </root>
    </mxGraphModel>
  </diagram>
  <diagram id="WNm7ppwclAcXbkiF-DXX" name="Component Diagram">
    <mxGraphModel dx="1050" dy="618" grid="1" gridSize="10" guides="1" tooltips="1" connect="1" arrows="1" fold="1" page="1" pageScale="1" pageWidth="827" pageHeight="1169" math="0" shadow="0">
      <root>
        <mxCell id="0" />
        <mxCell id="1" parent="0" />
        <mxCell id="1R4ucydd60EqUWNviX3u-12" value="&lt;span style=&quot;white-space: pre;&quot;&gt;&#x9;&lt;/span&gt;&lt;div&gt;&lt;br&gt;&lt;/div&gt;&lt;div&gt;&lt;br&gt;&lt;/div&gt;&lt;div&gt;&lt;br&gt;&lt;/div&gt;&lt;div&gt;&lt;br&gt;&lt;/div&gt;&lt;div&gt;&lt;br&gt;&lt;/div&gt;&lt;div&gt;&lt;br&gt;&lt;/div&gt;&lt;div&gt;&lt;span style=&quot;background-color: initial;&quot;&gt;&lt;span style=&quot;white-space: pre;&quot;&gt;&#x9;&lt;/span&gt;Application Code&lt;/span&gt;&lt;br&gt;&lt;/div&gt;&lt;div&gt;&lt;div&gt;&lt;span style=&quot;white-space: pre;&quot;&gt;&#x9;&lt;/span&gt;&amp;nbsp; &amp;nbsp; &amp;nbsp; (Python)&lt;/div&gt;&lt;/div&gt;" style="rounded=1;whiteSpace=wrap;html=1;fillColor=#fff2cc;strokeColor=#d6b656;align=left;" vertex="1" parent="1">
          <mxGeometry x="160" y="130" width="550" height="240" as="geometry" />
        </mxCell>
        <mxCell id="1R4ucydd60EqUWNviX3u-6" value="Trello API" style="rounded=1;whiteSpace=wrap;html=1;fillColor=#d5e8d4;strokeColor=#82b366;" vertex="1" parent="1">
          <mxGeometry x="380" y="420" width="120" height="60" as="geometry" />
        </mxCell>
        <mxCell id="1R4ucydd60EqUWNviX3u-7" style="edgeStyle=orthogonalEdgeStyle;rounded=0;orthogonalLoop=1;jettySize=auto;html=1;exitX=0.5;exitY=1;exitDx=0;exitDy=0;" edge="1" parent="1" source="1R4ucydd60EqUWNviX3u-9" target="1R4ucydd60EqUWNviX3u-13">
          <mxGeometry relative="1" as="geometry" />
        </mxCell>
        <mxCell id="1R4ucydd60EqUWNviX3u-8" value="Runs" style="edgeLabel;html=1;align=center;verticalAlign=middle;resizable=0;points=[];labelBackgroundColor=default;" vertex="1" connectable="0" parent="1R4ucydd60EqUWNviX3u-7">
          <mxGeometry x="-0.11" y="-1" relative="1" as="geometry">
            <mxPoint as="offset" />
          </mxGeometry>
        </mxCell>
        <mxCell id="1R4ucydd60EqUWNviX3u-9" value="Flask Web Server" style="rounded=1;whiteSpace=wrap;html=1;fillColor=#e1d5e7;strokeColor=#9673a6;" vertex="1" parent="1">
          <mxGeometry x="380" y="30" width="120" height="60" as="geometry" />
        </mxCell>
        <mxCell id="1R4ucydd60EqUWNviX3u-10" style="edgeStyle=orthogonalEdgeStyle;rounded=0;orthogonalLoop=1;jettySize=auto;html=1;exitX=0.5;exitY=1;exitDx=0;exitDy=0;" edge="1" parent="1" source="1R4ucydd60EqUWNviX3u-16" target="1R4ucydd60EqUWNviX3u-6">
          <mxGeometry relative="1" as="geometry" />
        </mxCell>
        <mxCell id="1R4ucydd60EqUWNviX3u-11" value="HTTP API calls" style="edgeLabel;html=1;align=center;verticalAlign=middle;resizable=0;points=[];" vertex="1" connectable="0" parent="1R4ucydd60EqUWNviX3u-10">
          <mxGeometry x="-0.3771" y="-1" relative="1" as="geometry">
            <mxPoint x="1" y="28" as="offset" />
          </mxGeometry>
        </mxCell>
        <mxCell id="LeZ1szPWhQ46Hyu4PEa4-1" value="" style="edgeStyle=orthogonalEdgeStyle;rounded=0;orthogonalLoop=1;jettySize=auto;html=1;" edge="1" parent="1" source="1R4ucydd60EqUWNviX3u-13" target="1R4ucydd60EqUWNviX3u-16">
          <mxGeometry relative="1" as="geometry" />
        </mxCell>
        <mxCell id="1R4ucydd60EqUWNviX3u-13" value="Web routes&lt;div&gt;(app.py)&lt;/div&gt;" style="rounded=1;whiteSpace=wrap;html=1;fillColor=#ffe6cc;strokeColor=#d79b00;" vertex="1" parent="1">
          <mxGeometry x="380" y="160" width="120" height="60" as="geometry" />
        </mxCell>
        <mxCell id="1R4ucydd60EqUWNviX3u-18" style="edgeStyle=orthogonalEdgeStyle;rounded=0;orthogonalLoop=1;jettySize=auto;html=1;exitX=1;exitY=0.5;exitDx=0;exitDy=0;entryX=0;entryY=0.5;entryDx=0;entryDy=0;" edge="1" parent="1" source="1R4ucydd60EqUWNviX3u-14" target="1R4ucydd60EqUWNviX3u-13">
          <mxGeometry relative="1" as="geometry" />
        </mxCell>
        <mxCell id="1R4ucydd60EqUWNviX3u-14" value="HTML Templates" style="rounded=1;whiteSpace=wrap;html=1;fillColor=#ffe6cc;strokeColor=#d79b00;" vertex="1" parent="1">
          <mxGeometry x="200" y="160" width="120" height="60" as="geometry" />
        </mxCell>
        <mxCell id="1R4ucydd60EqUWNviX3u-19" style="edgeStyle=orthogonalEdgeStyle;rounded=0;orthogonalLoop=1;jettySize=auto;html=1;exitX=0.5;exitY=0;exitDx=0;exitDy=0;entryX=0.5;entryY=1;entryDx=0;entryDy=0;" edge="1" parent="1" source="1R4ucydd60EqUWNviX3u-15" target="1R4ucydd60EqUWNviX3u-17">
          <mxGeometry relative="1" as="geometry" />
        </mxCell>
        <mxCell id="1R4ucydd60EqUWNviX3u-20" style="edgeStyle=orthogonalEdgeStyle;rounded=0;orthogonalLoop=1;jettySize=auto;html=1;exitX=0;exitY=0.5;exitDx=0;exitDy=0;entryX=1;entryY=0.5;entryDx=0;entryDy=0;" edge="1" parent="1" source="1R4ucydd60EqUWNviX3u-15" target="1R4ucydd60EqUWNviX3u-16">
          <mxGeometry relative="1" as="geometry" />
        </mxCell>
        <mxCell id="1R4ucydd60EqUWNviX3u-15" value="Item&lt;div&gt;(Data Class)&lt;/div&gt;" style="rounded=1;whiteSpace=wrap;html=1;fillColor=#ffe6cc;strokeColor=#d79b00;" vertex="1" parent="1">
          <mxGeometry x="560" y="270" width="120" height="60" as="geometry" />
        </mxCell>
        <mxCell id="1R4ucydd60EqUWNviX3u-16" value="Trello Client" style="rounded=1;whiteSpace=wrap;html=1;fillColor=#ffe6cc;strokeColor=#d79b00;" vertex="1" parent="1">
          <mxGeometry x="380" y="270" width="120" height="60" as="geometry" />
        </mxCell>
        <mxCell id="1R4ucydd60EqUWNviX3u-21" style="edgeStyle=orthogonalEdgeStyle;rounded=0;orthogonalLoop=1;jettySize=auto;html=1;exitX=0;exitY=0.5;exitDx=0;exitDy=0;entryX=1;entryY=0.5;entryDx=0;entryDy=0;" edge="1" parent="1" source="1R4ucydd60EqUWNviX3u-17" target="1R4ucydd60EqUWNviX3u-13">
          <mxGeometry relative="1" as="geometry" />
        </mxCell>
        <mxCell id="1R4ucydd60EqUWNviX3u-17" value="ViewModel&lt;div&gt;(Data Class)&lt;/div&gt;" style="rounded=1;whiteSpace=wrap;html=1;fillColor=#ffe6cc;strokeColor=#d79b00;" vertex="1" parent="1">
          <mxGeometry x="560" y="160" width="120" height="60" as="geometry" />
        </mxCell>
      </root>
    </mxGraphModel>
  </diagram>
</mxfile>
